# xmcd
#
# Track frame offsets:
#	182
#	20107
#	36027
#
# Disc length: 818 seconds
#
# Revision: 2
# Processed by: cddbd v1.5.2PL0 Copyright (c) Steve Scherf et al.
# Submitted via: audiograbber 1.83.01
#
DISCID=1e033003
DTITLE=You were the Fool - Ween
DYEAR=1996
DGENRE=Alternative Rock
TTITLE0=You were the fool
TTITLE1=Piss up a rope
TTITLE2=So long Jerry
EXTD=
EXTT0=
EXTT1=
EXTT2=
PLAYORDER=
